<?xml version="1.0" encoding="utf-8" ?>
<svg baseProfile="full" height="270px" version="1.1" viewBox="0 0 777 270" width="777px" xmlns="http://www.w3.org/2000/svg" xmlns:ev="http://www.w3.org/2001/xml-events" xmlns:xlink="http://www.w3.org/1999/xlink"><defs /><path d="M 667,52 L 666,53 L 664,53 L 661,56 L 661,57 L 660,58 L 660,64 L 662,66 L 662,67 L 664,69 L 665,69 L 667,71 L 667,72 L 668,72 L 670,74 L 670,75 L 756,161 L 741,176 L 740,176 L 736,180 L 736,181 L 735,182 L 734,182 L 733,183 L 733,184 L 732,185 L 731,185 L 731,186 L 725,192 L 724,192 L 722,194 L 722,195 L 662,255 L 662,256 L 661,257 L 661,258 L 660,259 L 660,263 L 662,265 L 662,266 L 664,268 L 665,268 L 666,269 L 671,269 L 672,268 L 673,268 L 674,267 L 675,267 L 675,266 L 677,264 L 678,264 L 705,237 L 705,236 L 706,235 L 707,235 L 709,233 L 709,232 L 710,231 L 711,231 L 713,229 L 713,228 L 714,227 L 715,227 L 716,226 L 716,225 L 720,221 L 721,221 L 725,217 L 725,216 L 727,214 L 728,214 L 728,213 L 773,168 L 773,167 L 775,165 L 775,163 L 776,162 L 776,159 L 775,158 L 775,156 L 761,142 L 761,141 L 760,141 L 756,137 L 756,136 L 673,53 L 671,53 L 670,52 Z" fill="white" stroke="white" stroke-width="10"/><path d="M 106,52 L 105,53 L 103,53 L 20,136 L 20,137 L 16,141 L 15,141 L 15,142 L 1,156 L 1,158 L 0,159 L 0,162 L 1,163 L 1,165 L 3,167 L 3,168 L 48,213 L 48,214 L 49,214 L 51,216 L 51,217 L 55,221 L 56,221 L 60,225 L 60,226 L 61,227 L 62,227 L 63,228 L 63,229 L 65,231 L 66,231 L 67,232 L 67,233 L 69,235 L 70,235 L 71,236 L 71,237 L 98,264 L 99,264 L 101,266 L 101,267 L 102,267 L 103,268 L 104,268 L 105,269 L 110,269 L 111,268 L 112,268 L 114,266 L 114,265 L 116,263 L 116,259 L 115,258 L 115,257 L 114,256 L 114,255 L 54,195 L 54,194 L 52,192 L 51,192 L 45,186 L 45,185 L 44,185 L 43,184 L 43,183 L 42,182 L 41,182 L 40,181 L 40,180 L 36,176 L 35,176 L 20,161 L 106,75 L 106,74 L 108,72 L 109,72 L 109,71 L 111,69 L 112,69 L 114,67 L 114,66 L 116,64 L 116,58 L 115,57 L 115,56 L 112,53 L 110,53 L 109,52 Z" fill="white" stroke="white" stroke-width="10"/><path d="M 320,0 L 318,2 L 317,2 L 314,5 L 314,6 L 309,11 L 309,12 L 306,15 L 306,16 L 302,20 L 302,21 L 298,25 L 298,26 L 294,30 L 294,31 L 290,35 L 290,36 L 286,40 L 286,41 L 282,45 L 282,46 L 278,50 L 278,51 L 275,54 L 275,55 L 271,59 L 271,60 L 267,64 L 267,65 L 264,68 L 264,69 L 259,74 L 259,75 L 256,78 L 256,79 L 252,83 L 252,84 L 248,88 L 248,89 L 245,92 L 245,93 L 241,97 L 241,98 L 237,102 L 237,103 L 233,107 L 233,108 L 230,111 L 230,112 L 226,116 L 226,117 L 222,121 L 222,122 L 219,125 L 219,126 L 215,130 L 215,131 L 211,135 L 211,136 L 207,140 L 207,141 L 203,145 L 203,146 L 199,150 L 199,151 L 195,155 L 195,156 L 192,159 L 192,160 L 188,164 L 188,165 L 183,170 L 183,171 L 179,175 L 179,176 L 175,180 L 175,181 L 171,185 L 171,186 L 167,190 L 167,191 L 163,195 L 163,196 L 158,201 L 158,202 L 157,203 L 157,204 L 156,205 L 156,208 L 157,209 L 157,210 L 158,211 L 158,212 L 160,214 L 161,214 L 162,215 L 169,215 L 175,209 L 175,208 L 179,204 L 179,203 L 184,198 L 184,197 L 188,193 L 188,192 L 192,188 L 192,187 L 196,183 L 196,182 L 200,178 L 200,177 L 204,173 L 204,172 L 207,169 L 207,168 L 211,164 L 211,163 L 216,158 L 216,157 L 219,154 L 219,153 L 222,150 L 222,149 L 226,145 L 226,144 L 230,140 L 230,139 L 234,135 L 234,134 L 237,131 L 237,130 L 241,126 L 241,125 L 245,121 L 245,120 L 250,115 L 250,114 L 253,111 L 253,110 L 257,106 L 257,105 L 261,101 L 261,100 L 264,97 L 264,96 L 268,92 L 268,91 L 272,87 L 272,86 L 276,82 L 276,81 L 280,77 L 280,76 L 283,73 L 283,72 L 287,68 L 287,67 L 290,64 L 290,63 L 295,58 L 295,57 L 299,53 L 299,52 L 303,48 L 303,47 L 306,44 L 306,43 L 310,39 L 310,38 L 314,34 L 314,33 L 317,30 L 317,29 L 321,25 L 321,24 L 324,21 L 325,21 L 328,24 L 328,25 L 333,30 L 333,31 L 339,37 L 339,38 L 343,42 L 343,43 L 349,49 L 349,50 L 353,54 L 353,55 L 357,59 L 357,60 L 362,65 L 362,66 L 368,72 L 368,73 L 374,79 L 374,80 L 379,85 L 379,86 L 384,91 L 384,92 L 389,97 L 389,98 L 394,103 L 394,104 L 398,108 L 398,109 L 403,114 L 403,115 L 405,117 L 405,118 L 402,121 L 402,122 L 397,127 L 397,128 L 393,132 L 393,133 L 388,138 L 388,139 L 383,144 L 383,145 L 378,150 L 378,151 L 374,155 L 374,156 L 369,161 L 369,162 L 364,167 L 364,168 L 360,172 L 360,173 L 359,174 L 359,180 L 360,181 L 360,182 L 362,184 L 363,184 L 364,185 L 367,185 L 368,186 L 369,185 L 371,185 L 372,184 L 373,184 L 377,180 L 377,179 L 381,175 L 381,174 L 386,169 L 386,168 L 391,163 L 391,162 L 396,157 L 396,156 L 401,151 L 401,150 L 405,146 L 405,145 L 410,140 L 410,139 L 415,134 L 415,133 L 419,129 L 419,128 L 424,123 L 424,122 L 429,117 L 429,116 L 433,112 L 433,111 L 438,106 L 438,105 L 443,100 L 443,99 L 448,94 L 448,93 L 453,88 L 453,87 L 458,82 L 458,81 L 462,77 L 462,76 L 467,71 L 467,70 L 469,68 L 470,68 L 475,73 L 475,74 L 479,78 L 479,79 L 484,84 L 484,85 L 488,89 L 488,90 L 494,96 L 494,97 L 499,102 L 499,103 L 503,107 L 503,108 L 508,113 L 508,114 L 512,118 L 512,119 L 515,122 L 515,123 L 520,128 L 520,129 L 526,135 L 526,136 L 530,140 L 530,141 L 534,145 L 534,146 L 539,151 L 539,152 L 543,156 L 543,157 L 547,161 L 547,162 L 552,167 L 552,168 L 556,172 L 556,173 L 561,178 L 561,179 L 566,184 L 566,185 L 571,190 L 571,191 L 575,195 L 575,196 L 580,201 L 580,202 L 584,206 L 584,207 L 590,213 L 590,214 L 595,219 L 596,219 L 597,220 L 604,220 L 606,218 L 607,218 L 607,217 L 609,215 L 609,209 L 608,208 L 608,207 L 602,201 L 602,200 L 597,195 L 597,194 L 592,189 L 592,188 L 588,184 L 588,183 L 583,178 L 583,177 L 578,172 L 578,171 L 574,167 L 574,166 L 568,160 L 568,159 L 563,154 L 563,153 L 559,149 L 559,148 L 554,143 L 554,142 L 550,138 L 550,137 L 545,132 L 545,131 L 540,126 L 540,125 L 537,122 L 537,121 L 532,116 L 532,115 L 527,110 L 527,109 L 522,104 L 522,103 L 518,99 L 518,98 L 513,93 L 513,92 L 509,88 L 509,87 L 504,82 L 504,81 L 500,77 L 500,76 L 496,72 L 496,71 L 491,66 L 491,65 L 486,60 L 486,59 L 481,54 L 481,53 L 475,47 L 473,47 L 472,46 L 467,46 L 466,47 L 465,47 L 464,48 L 463,48 L 461,50 L 461,51 L 456,56 L 456,57 L 451,62 L 451,63 L 446,68 L 446,69 L 442,73 L 442,74 L 437,79 L 437,80 L 432,85 L 432,86 L 428,90 L 428,91 L 423,96 L 423,97 L 418,102 L 418,103 L 417,104 L 414,101 L 414,100 L 410,96 L 410,95 L 405,90 L 405,89 L 400,84 L 400,83 L 395,78 L 395,77 L 390,72 L 390,71 L 386,67 L 386,66 L 380,60 L 380,59 L 375,54 L 375,53 L 370,48 L 370,47 L 364,41 L 364,40 L 359,35 L 359,34 L 353,28 L 353,27 L 348,22 L 348,21 L 343,16 L 343,15 L 337,9 L 337,8 L 336,7 L 335,7 L 334,6 L 334,5 L 331,2 L 330,2 L 329,1 L 328,1 L 327,0 Z" fill="white" stroke="white" stroke-width="10"/></svg>